<svg width="20" height="20" viewBox="0 0 20 20" fill="none" xmlns="http://www.w3.org/2000/svg">
    <path fill-rule="evenodd" clip-rule="evenodd"
        d="M1.66669 2.49984C1.66669 2.0396 2.03978 1.6665 2.50002 1.6665H8.33335C8.79359 1.6665 9.16669 2.0396 9.16669 2.49984V9.99984C9.16669 10.4601 8.79359 10.8332 8.33335 10.8332H2.50002C2.03978 10.8332 1.66669 10.4601 1.66669 9.99984V2.49984ZM3.33335 3.33317V9.1665H7.50002V3.33317H3.33335Z"
        fill="#333333" />
    <path fill-rule="evenodd" clip-rule="evenodd"
        d="M10.8333 2.49984C10.8333 2.0396 11.2064 1.6665 11.6666 1.6665H17.5C17.9602 1.6665 18.3333 2.0396 18.3333 2.49984V6.6665C18.3333 7.12674 17.9602 7.49984 17.5 7.49984H11.6666C11.2064 7.49984 10.8333 7.12674 10.8333 6.6665V2.49984ZM12.5 3.33317V5.83317H16.6666V3.33317H12.5Z"
        fill="#333333" />
    <path fill-rule="evenodd" clip-rule="evenodd"
        d="M10.8333 9.99984C10.8333 9.5396 11.2064 9.1665 11.6666 9.1665H17.5C17.9602 9.1665 18.3333 9.5396 18.3333 9.99984V17.4998C18.3333 17.9601 17.9602 18.3332 17.5 18.3332H11.6666C11.2064 18.3332 10.8333 17.9601 10.8333 17.4998V9.99984ZM12.5 10.8332V16.6665H16.6666V10.8332H12.5Z"
        fill="#333333" />
    <path fill-rule="evenodd" clip-rule="evenodd"
        d="M1.66669 13.3333C1.66669 12.8731 2.03978 12.5 2.50002 12.5H8.33335C8.79359 12.5 9.16669 12.8731 9.16669 13.3333V17.5C9.16669 17.9602 8.79359 18.3333 8.33335 18.3333H2.50002C2.03978 18.3333 1.66669 17.9602 1.66669 17.5V13.3333ZM3.33335 14.1667V16.6667H7.50002V14.1667H3.33335Z"
        fill="#333333" />
</svg>
    