<svg width="20" height="20" viewBox="0 0 20 20" fill="none" xmlns="http://www.w3.org/2000/svg">
    <path fill-rule="evenodd" clip-rule="evenodd"
        d="M16.6667 15.8332C16.6667 14.9127 17.4128 14.1665 18.3333 14.1665C19.2538 14.1665 20 14.9127 20 15.8332C20 16.7536 19.2538 17.4998 18.3333 17.4998C17.4128 17.4998 16.6667 16.7536 16.6667 15.8332Z"
        fill="#9C9DA4" />
    <path fill-rule="evenodd" clip-rule="evenodd"
        d="M16.6667 10.0002C16.6667 9.07969 17.4128 8.3335 18.3333 8.3335C19.2538 8.3335 20 9.07969 20 10.0002C20 10.9206 19.2538 11.6668 18.3333 11.6668C17.4128 11.6668 16.6667 10.9206 16.6667 10.0002Z"
        fill="#9C9DA4" />
    <path fill-rule="evenodd" clip-rule="evenodd"
        d="M16.6667 4.16667C16.6667 3.24619 17.4128 2.5 18.3333 2.5C19.2538 2.5 20 3.24619 20 4.16667C20 5.08714 19.2538 5.83333 18.3333 5.83333C17.4128 5.83333 16.6667 5.08714 16.6667 4.16667Z"
        fill="#9C9DA4" />
</svg>
    