<svg width="28" height="28" viewBox="0 0 28 28" fill="none" xmlns="http://www.w3.org/2000/svg">
    <path fill-rule="evenodd" clip-rule="evenodd"
        d="M9.60022 0.352539C8.02074 0.352539 6.50601 0.964672 5.38917 2.05427L0 7.31197V9.7186C0 11.4189 0.748608 12.9486 1.94181 14.0111C0.748608 15.0736 0 16.6033 0 18.3035V20.7102L5.38917 25.9679C6.50601 27.0575 8.02074 27.6696 9.60022 27.6696C11.343 27.6696 12.9109 26.9393 14 25.7752C15.0891 26.9393 16.657 27.6696 18.3998 27.6696C19.9793 27.6696 21.494 27.0575 22.6108 25.9679L28 20.7102V18.3035C28 16.6033 27.2514 15.0736 26.0582 14.0111C27.2514 12.9486 28 11.4189 28 9.7186V7.31197L22.6108 2.05427C21.494 0.964672 19.9793 0.352539 18.3998 0.352539C16.657 0.352539 15.0891 1.08289 14 2.24698C12.9109 1.08289 11.343 0.352539 9.60022 0.352539ZM18.0312 14.0111C17.964 13.9513 17.8982 13.8899 17.8336 13.827L14 10.0868L10.1664 13.827C10.1018 13.8899 10.036 13.9513 9.96884 14.0111C10.036 14.0708 10.1018 14.1322 10.1664 14.1952L14 17.9353L17.8336 14.1952C17.8982 14.1322 17.964 14.0708 18.0312 14.0111ZM15.5555 20.7102V21.8595C15.5555 23.392 16.829 24.6344 18.3998 24.6344C19.1541 24.6344 19.8776 24.342 20.4109 23.8217L24.8889 19.4529V18.3035C24.8889 16.771 23.6155 15.5287 22.0447 15.5287C21.2904 15.5287 20.5669 15.821 20.0335 16.3414L15.5555 20.7102ZM12.4445 20.7102L7.96649 16.3414C7.43309 15.821 6.70967 15.5287 5.95533 15.5287C4.38451 15.5287 3.11111 16.771 3.11111 18.3035V19.4529L7.58905 23.8217C8.12245 24.342 8.8459 24.6344 9.60022 24.6344C11.171 24.6344 12.4445 23.392 12.4445 21.8595V20.7102ZM12.4445 6.16262V7.31197L7.96649 11.6807C7.43309 12.2011 6.70967 12.4935 5.95533 12.4935C4.38451 12.4935 3.11111 11.2511 3.11111 9.7186V8.56923L7.58905 4.2005C8.12245 3.68012 8.8459 3.38777 9.60022 3.38777C11.171 3.38777 12.4445 4.63011 12.4445 6.16262ZM20.0335 11.6807L15.5555 7.31197V6.16262C15.5555 4.63011 16.829 3.38777 18.3998 3.38777C19.1541 3.38777 19.8776 3.68012 20.4109 4.2005L24.8889 8.56923V9.7186C24.8889 11.2511 23.6155 12.4935 22.0447 12.4935C21.2904 12.4935 20.5669 12.2011 20.0335 11.6807Z"
        fill="#5866DD" />
</svg>
    