<svg width="20" height="20" viewBox="0 0 20 20" fill="none" xmlns="http://www.w3.org/2000/svg">
    <path fill-rule="evenodd" clip-rule="evenodd"
        d="M3.33331 3.33317C3.1123 3.33317 2.90034 3.42097 2.74406 3.57725C2.58778 3.73353 2.49998 3.94549 2.49998 4.1665V15.8332C2.49998 16.0542 2.58778 16.2661 2.74406 16.4224C2.90034 16.5787 3.1123 16.6665 3.33331 16.6665H14.1666C14.2026 16.6665 14.2386 16.6688 14.2743 16.6735C14.4389 16.6949 14.6062 16.6667 14.7546 16.5925C14.887 16.5263 14.9991 16.4262 15.0797 16.3027L17.1308 10.8332H7.23084L5.77371 14.476C5.60278 14.9033 5.11781 15.1112 4.69049 14.9402C4.26317 14.7693 4.05532 14.2843 4.22625 13.857L5.89292 9.69035C6.01947 9.37396 6.32589 9.1665 6.66665 9.1665H15.8333V6.6665C15.8333 6.44549 15.7455 6.23353 15.5892 6.07725C15.433 5.92097 15.221 5.83317 15 5.83317H9.16665C8.88802 5.83317 8.62783 5.69392 8.47327 5.46209L7.05399 3.33317H3.33331ZM17.5 9.1665V6.6665C17.5 6.00346 17.2366 5.36758 16.7677 4.89874C16.2989 4.4299 15.663 4.1665 15 4.1665H9.61263L8.19335 2.03759C8.0388 1.80575 7.77861 1.6665 7.49998 1.6665H3.33331C2.67027 1.6665 2.03439 1.9299 1.56555 2.39874C1.0967 2.86758 0.833313 3.50346 0.833313 4.1665V15.8332C0.833313 16.4962 1.09671 17.1321 1.56555 17.6009C2.03439 18.0698 2.67027 18.3332 3.33331 18.3332H14.1181C14.5927 18.3836 15.0723 18.297 15.5 18.0832C15.9454 17.8605 16.3142 17.5098 16.559 17.0762C16.5802 17.0386 16.5984 16.9995 16.6136 16.9591L19.1136 10.2924C19.2096 10.0365 19.1739 9.74982 19.0183 9.52518C18.8626 9.30053 18.6066 9.1665 18.3333 9.1665H17.5Z"
        fill="#333333" />
</svg>
    